<svg width="117" height="31" viewBox="0 0 117 31" fill="none" xmlns="http://www.w3.org/2000/svg">
<path d="M0 8.11807H3.78298L6.26895 14.974C6.58119 15.8809 6.8454 16.8724 7.14563 17.8276H7.24171C7.55395 16.8724 7.80615 15.893 8.1184 14.974L10.5323 8.11807H14.3153V23.5469H11.1568V17.8881C11.1568 16.3887 11.433 14.1397 11.6011 12.6524H11.5051L10.2441 16.3041L8.08237 22.2169H6.16085L3.98714 16.3041L2.76217 12.6524H2.6661C2.83423 14.1397 3.11045 16.3887 3.11045 17.8881V23.5469H0L0 8.11807Z" fill="#FB8C00"/>
<path d="M15.7444 17.6825C15.7444 13.8737 18.4465 11.5279 21.2447 11.5279C24.5714 11.5279 26.2167 13.9583 26.2167 17.1626C26.2167 17.7914 26.1446 18.4201 26.0725 18.6982H19.095C19.4073 20.4031 20.5602 21.177 22.1214 21.177C22.9981 21.177 23.8027 20.911 24.6434 20.4152L25.7843 22.5071C24.5834 23.3414 23.0341 23.8251 21.641 23.8251C18.3144 23.8251 15.7444 21.5639 15.7444 17.6704L15.7444 17.6825ZM23.2623 16.3887C23.2623 15.0949 22.7099 14.1639 21.3288 14.1639C20.2359 14.1639 19.2992 14.9015 19.059 16.3887H23.2623Z" fill="#FB8C00"/>
<path d="M28.8228 19.2786V14.5387H27.2256V11.939L29.015 11.806L29.1951 10.3671L32.2696 8.6864V11.806H35.0678V14.5387H32.2696V19.2424C32.2696 20.5724 32.87 21.1045 33.7828 21.1045C34.1671 21.1045 34.5874 20.9956 34.8876 20.8868L35.4281 23.414C34.8036 23.6074 33.9629 23.8372 32.834 23.8372C29.9517 23.8372 28.8108 21.9992 28.8108 19.2786L28.8228 19.2786Z" fill="#FB8C00"/>
<path d="M36.3526 20.2943C36.3526 17.8155 38.3101 16.4855 42.9218 15.9897C42.8497 14.9619 42.3453 14.2969 41.0723 14.2969C40.0995 14.2969 39.1148 14.708 37.9859 15.3609L36.7609 13.0756C38.2381 12.1687 39.9074 11.5279 41.7448 11.5279C44.7232 11.5279 46.3805 13.2449 46.3805 16.8361V23.5469H43.5583L43.3061 22.3378H43.222C42.2372 23.2084 41.1444 23.825 39.8233 23.825C37.6976 23.825 36.3406 22.2652 36.3406 20.2822L36.3526 20.2943ZM42.9218 20.1371V18.0815C40.4598 18.4201 39.6672 19.1214 39.6672 20.0162C39.6672 20.778 40.1836 21.1407 41.0002 21.1407C41.8169 21.1407 42.3093 20.7538 42.9218 20.1371Z" fill="#FB8C00"/>
<path d="M51.8328 14.9256V13.8132H49.8752V23.5469H51.8328V16.5943H57.7174V14.9256L51.8328 14.9256Z" fill="black"/>
<path d="M58.7623 10.6452V8.97656H49.8633V12.3622H51.8208V10.6573H58.7503L58.7623 10.6452Z" fill="black"/>
<path d="M60.948 8.42036C60.948 7.65859 61.5365 7.16284 62.281 7.16284C63.0256 7.16284 63.6141 7.65859 63.6141 8.42036C63.6141 9.18213 63.0256 9.67788 62.281 9.67788C61.5365 9.67788 60.948 9.15794 60.948 8.42036ZM61.2963 12.0357H63.2298V23.5469H61.2963V12.0357Z" fill="black"/>
<path d="M67.4212 19.992V13.6318H65.7158V12.1567L67.5052 12.0478L67.7334 8.8194H69.3427V12.0478H72.4411V13.6318H69.3427V20.0283C69.3427 21.4309 69.799 22.2532 71.1081 22.2532C71.5164 22.2532 72.0448 22.096 72.4051 21.9509L72.7774 23.414C72.1409 23.6316 71.3723 23.8372 70.6517 23.8372C68.2138 23.8372 67.3971 22.2894 67.3971 19.992H67.4212Z" fill="black"/>
<path d="M75.0232 12.0357H76.6204L76.7886 13.6923H76.8486C77.9415 12.6161 79.1184 11.7455 80.6797 11.7455C83.0816 11.7455 84.1744 13.3054 84.1744 16.2436V23.5348H82.2409V16.4975C82.2409 14.3573 81.5924 13.4384 80.0792 13.4384C78.9143 13.4384 78.0976 14.0429 76.9567 15.2037V23.5348H75.0232V12.0237V12.0357Z" fill="black"/>
<path d="M87.0327 17.8035C87.0327 14.0551 89.5427 11.7577 92.1728 11.7577C95.0911 11.7577 96.7364 13.8616 96.7364 17.1505C96.7364 17.5616 96.7004 17.9727 96.6403 18.2629H88.9422C89.0863 20.7054 90.5635 22.2773 92.7372 22.2773C93.8301 22.2773 94.7308 21.9267 95.5835 21.3584L96.28 22.6401C95.2832 23.3051 94.0583 23.8372 92.509 23.8372C89.4586 23.8372 87.0327 21.5881 87.0327 17.8156V17.8035ZM95.031 16.8603C95.031 14.5508 93.9982 13.3054 92.2088 13.3054C90.5995 13.3054 89.1704 14.5992 88.9302 16.8603H95.019H95.031Z" fill="black"/>
<path d="M98.2855 22.229L99.2342 20.9473C100.231 21.7574 101.24 22.3136 102.609 22.3136C104.11 22.3136 104.855 21.5035 104.855 20.5241C104.855 19.3391 103.51 18.8191 102.237 18.3476C100.639 17.7551 98.8259 16.9691 98.8259 15.0224C98.8259 13.1845 100.291 11.7577 102.765 11.7577C104.182 11.7577 105.431 12.3501 106.32 13.0515L105.395 14.2969C104.602 13.7165 103.798 13.2691 102.789 13.2691C101.348 13.2691 100.687 14.043 100.687 14.9257C100.687 16.0139 101.924 16.4371 103.221 16.9208C104.867 17.5495 106.704 18.2267 106.704 20.4152C106.704 22.2773 105.227 23.8372 102.537 23.8372C100.916 23.8372 99.3423 23.1479 98.2734 22.2411L98.2855 22.229Z" fill="black"/>
<path d="M108.133 22.229L109.082 20.9473C110.079 21.7574 111.088 22.3136 112.457 22.3136C113.958 22.3136 114.703 21.5035 114.703 20.5241C114.703 19.3391 113.357 18.8191 112.084 18.3476C110.487 17.7551 108.674 16.9691 108.674 15.0224C108.674 13.1845 110.139 11.7577 112.613 11.7577C114.03 11.7577 115.279 12.3501 116.168 13.0515L115.243 14.2969C114.45 13.7165 113.646 13.2691 112.637 13.2691C111.196 13.2691 110.535 14.043 110.535 14.9257C110.535 16.0139 111.772 16.4371 113.069 16.9208C114.715 17.5495 116.552 18.2267 116.552 20.4152C116.552 22.2773 115.075 23.8372 112.385 23.8372C110.763 23.8372 109.19 23.1479 108.121 22.2411L108.133 22.229Z" fill="black"/>
</svg>
